<?xml version="1.0" standalone="no"?>
<!DOCTYPE svg PUBLIC "-//W3C//DTD SVG 20010904//EN"
 "http://www.w3.org/TR/2001/REC-SVG-20010904/DTD/svg10.dtd">
<svg version="1.0" xmlns="http://www.w3.org/2000/svg"
 width="144.000000pt" height="144.000000pt" viewBox="0 0 144.000000 144.000000"
 preserveAspectRatio="xMidYMid meet">
<metadata>
Created by potrace 1.11, written by Peter Selinger 2001-2013
</metadata>
<g transform="translate(0.000000,144.000000) scale(0.100000,-0.100000)"
fill="#000000" stroke="none">
<path d="M0 720 l0 -720 720 0 720 0 0 720 0 720 -720 0 -720 0 0 -720z m673
219 l47 -31 48 32 c43 29 53 31 110 28 56 -4 66 -8 99 -40 29 -29 37 -45 41
-86 8 -87 -8 -115 -152 -254 -72 -70 -138 -128 -146 -128 -8 0 -74 58 -146
128 -143 140 -160 167 -152 254 4 36 13 57 34 80 37 39 57 47 120 47 40 1 60
-5 97 -30z"/>
</g>
</svg>
